<svg width="40" height="40" viewBox="0 0 40 40" fill="none" xmlns="http://www.w3.org/2000/svg">
<desc>
  This work is licensed under a <a rel="license" href="http://creativecommons.org/licenses/by/4.0/">Creative Commons Attribution 4.0 International License</a>.
</desc>
<g clip-path="url(#clip0)">
<path d="M39.241 12.4777L20.9598 0.290163C20.3358 -0.0938217 19.6698 -0.0973374 19.0402 0.290163L0.758906 12.4777C0.290156 12.7901 0 13.3482 0 13.9062V26.0936C0 26.6516 0.290156 27.2097 0.758984 27.5222L19.0402 39.7114C19.6642 40.0954 20.3302 40.0989 20.9598 39.7114L39.2411 27.5222C39.7098 27.2098 40.0001 26.6516 40.0001 26.0936V13.9062C40 13.3482 39.7098 12.7901 39.241 12.4777ZM21.7188 4.9329L35.1786 13.9062L29.1741 17.9241L21.7188 12.9463V4.9329ZM18.2812 4.9329V12.9463L10.8259 17.9241L4.82141 13.9062L18.2812 4.9329ZM3.4375 17.1205L7.74555 19.9999L3.4375 22.8794V17.1205ZM18.2812 35.067L4.82141 26.0937L10.8259 22.0758L18.2812 27.0535V35.067ZM20 24.0624L13.9285 19.9999L20 15.9374L26.0715 19.9999L20 24.0624ZM21.7188 35.067V27.0535L29.1741 22.0758L35.1786 26.0937L21.7188 35.067ZM36.5625 22.8794L32.2545 19.9999L36.5625 17.1205V22.8794Z" fill="#F5E1C5"/>
</g>
<defs>
<clipPath id="clip0">
<rect width="40" height="40" fill="white"/>
</clipPath>
</defs>
</svg>
