<svg width="26" height="23" viewBox="0 0 26 23" fill="none" xmlns="http://www.w3.org/2000/svg">
<desc>
  This work is licensed under a <a rel="license" href="http://creativecommons.org/licenses/by/4.0/">Creative Commons Attribution 4.0 International License</a>.
</desc>
<path d="M12.6625 5.79301L4.51546 13.3627V21.5325C4.51546 21.744 4.58995 21.9469 4.72254 22.0965C4.85514 22.2461 5.03497 22.3301 5.22248 22.3301L10.1742 22.3156C10.3611 22.3146 10.5401 22.2301 10.6719 22.0806C10.8037 21.9312 10.8777 21.7289 10.8777 21.518V16.747C10.8777 16.5354 10.9522 16.3325 11.0848 16.183C11.2174 16.0334 11.3972 15.9494 11.5847 15.9494H14.4128C14.6003 15.9494 14.7802 16.0334 14.9127 16.183C15.0453 16.3325 15.1198 16.5354 15.1198 16.747V21.5146C15.1195 21.6195 15.1376 21.7235 15.173 21.8206C15.2084 21.9176 15.2604 22.0058 15.3261 22.0802C15.3918 22.1545 15.4698 22.2135 15.5558 22.2537C15.6417 22.2939 15.7338 22.3146 15.8268 22.3146L20.7768 22.3301C20.9643 22.3301 21.1442 22.2461 21.2768 22.0965C21.4094 21.9469 21.4839 21.744 21.4839 21.5325V13.3572L13.3386 5.79301C13.2428 5.70594 13.1235 5.65846 13.0005 5.65846C12.8775 5.65846 12.7583 5.70594 12.6625 5.79301ZM25.5315 10.938L21.8374 7.50285V0.598194C21.8374 0.439543 21.7815 0.28739 21.6821 0.175207C21.5826 0.063024 21.4477 0 21.3071 0H18.8325C18.6919 0 18.557 0.063024 18.4576 0.175207C18.3581 0.28739 18.3023 0.439543 18.3023 0.598194V4.21777L14.3461 0.545852C13.9664 0.193406 13.49 0.000704546 12.9983 0.000704546C12.5067 0.000704546 12.0302 0.193406 11.6506 0.545852L0.465145 10.938C0.411451 10.988 0.367027 11.0496 0.334413 11.119C0.301798 11.1884 0.281631 11.2645 0.275066 11.3427C0.2685 11.4209 0.275663 11.4999 0.296147 11.575C0.31663 11.6501 0.350032 11.7199 0.394444 11.7804L1.52125 13.3258C1.56554 13.3865 1.62002 13.4368 1.68157 13.4738C1.74311 13.5108 1.81052 13.5337 1.87993 13.5412C1.94933 13.5488 2.01938 13.5408 2.08605 13.5178C2.15272 13.4948 2.21472 13.4571 2.26848 13.407L12.6625 3.74918C12.7583 3.66211 12.8775 3.61462 13.0005 3.61462C13.1235 3.61462 13.2428 3.66211 13.3386 3.74918L23.7331 13.407C23.7867 13.4571 23.8486 13.4948 23.9152 13.5179C23.9818 13.541 24.0517 13.5491 24.1211 13.5417C24.1904 13.5343 24.2578 13.5115 24.3194 13.4748C24.3809 13.438 24.4355 13.3878 24.4798 13.3273L25.6066 11.7819C25.651 11.721 25.6843 11.6509 25.7045 11.5754C25.7248 11.5 25.7316 11.4208 25.7246 11.3423C25.7176 11.2639 25.697 11.1878 25.6638 11.1184C25.6307 11.049 25.5857 10.9877 25.5315 10.938Z" fill="#FFEBCC"/>
</svg>
