<svg width="26" height="22" viewBox="0 0 26 22" fill="none" xmlns="http://www.w3.org/2000/svg">
<desc>
  This work is licensed under a <a rel="license" href="http://creativecommons.org/licenses/by/4.0/">Creative Commons Attribution 4.0 International License</a>.
</desc>
<path d="M25.5404 17.0482L13.4515 21.8311C13.309 21.8797 13.1554 21.9048 13.0003 21.9048C12.8451 21.9048 12.6916 21.8797 12.549 21.8311L0.459575 17.0482C0.213491 16.9504 0.213491 16.79 0.459575 16.6918L3.35474 15.5486C3.49754 15.5 3.65127 15.4749 3.80661 15.4749C3.96196 15.4749 4.11569 15.5 4.25849 15.5486L12.549 18.8245C12.6915 18.8734 12.8451 18.8986 13.0003 18.8986C13.1555 18.8986 13.309 18.8734 13.4515 18.8245L21.7421 15.5486C21.8848 15.5 22.0384 15.4749 22.1936 15.4749C22.3489 15.4749 22.5025 15.5 22.6452 15.5486L25.5404 16.6942C25.7895 16.79 25.7895 16.9504 25.5404 17.0482ZM25.5404 10.3726L22.6452 9.22702C22.5025 9.17838 22.3489 9.1533 22.1936 9.1533C22.0384 9.1533 21.8848 9.17838 21.7421 9.22702L13.4515 12.5069C13.3089 12.5553 13.1554 12.5802 13.0003 12.5802C12.8452 12.5802 12.6917 12.5553 12.549 12.5069L4.25849 9.22702C4.11569 9.1784 3.96196 9.15332 3.80661 9.15332C3.65127 9.15332 3.49754 9.1784 3.35474 9.22702L0.459575 10.3726C0.213491 10.4704 0.213491 10.6313 0.459575 10.73L12.549 15.5119C12.6916 15.5606 12.8451 15.5856 13.0003 15.5856C13.1554 15.5856 13.309 15.5606 13.4515 15.5119L25.5404 10.73C25.7895 10.6313 25.7895 10.4709 25.5404 10.3726ZM0.459575 4.81233L12.5484 9.22702C12.8385 9.31749 13.1609 9.31749 13.4509 9.22702L25.5404 4.81233C25.7865 4.72139 25.7865 4.57324 25.5404 4.48278L13.4509 0.0685823C13.1611 -0.0228608 12.8383 -0.0228608 12.5484 0.0685823L0.459575 4.48278C0.210415 4.57324 0.210415 4.72139 0.459575 4.81233Z" fill="#FFEBCC"/>
</svg>
