<svg width="26" height="20" viewBox="0 0 26 20" fill="none" xmlns="http://www.w3.org/2000/svg">
<desc>
  This work is licensed under a <a rel="license" href="http://creativecommons.org/licenses/by/4.0/">Creative Commons Attribution 4.0 International License</a>.
</desc>
<path d="M23.5625 0H2.4375C1.09129 0 0 1.11927 0 2.5V17.5C0 18.8807 1.09129 20 2.4375 20H23.5625C24.9087 20 26 18.8807 26 17.5V2.5C26 1.11927 24.9087 0 23.5625 0ZM23.5625 2.5V4.62526C22.4239 5.57625 20.6087 7.055 16.728 10.1716C15.8728 10.8616 14.1787 12.5191 13 12.4998C11.8215 12.5193 10.1268 10.8613 9.272 10.1716C5.39195 7.05547 3.57627 5.57641 2.4375 4.62526V2.5H23.5625ZM2.4375 17.5V7.83323C3.6011 8.7838 5.25124 10.1177 7.76638 12.1377C8.87631 13.0338 10.8201 15.012 13 14.9999C15.1692 15.012 17.0883 13.0625 18.2332 12.1381C20.7483 10.1182 22.3988 8.78391 23.5625 7.83328V17.5H2.4375Z" fill="#F5E1C5"/>
</svg>
